<svg width="13" height="13" viewBox="0 0 13 13" fill="none" xmlns="http://www.w3.org/2000/svg">
<path fill-rule="evenodd" clip-rule="evenodd" d="M6.1369 1.35608C7.0854 0.756409 8.3454 0.590743 9.4339 0.939576C11.8016 1.70316 12.5366 4.28441 11.8792 6.33833C10.8648 9.56416 6.5324 11.9704 6.34865 12.0713C6.28331 12.1075 6.21098 12.1256 6.13865 12.1256C6.06631 12.1256 5.99456 12.1081 5.92923 12.0725C5.74665 11.9727 1.44573 9.60208 0.397479 6.33891C0.396895 6.33891 0.396895 6.33833 0.396895 6.33833C-0.261105 4.28383 0.471562 1.70199 2.83698 0.939576C3.94765 0.580243 5.15806 0.738326 6.1369 1.35608ZM3.10531 1.77258C1.1914 2.38974 0.710729 4.44833 1.23048 6.07174C2.04831 8.61624 5.2794 10.6737 6.13806 11.1829C6.99965 10.6684 10.2541 8.58824 11.0456 6.07408C11.5654 4.44891 11.083 2.39033 9.16615 1.77258C8.23748 1.47449 7.15423 1.65591 6.4064 2.23458C6.25006 2.35474 6.03306 2.35708 5.87556 2.23808C5.0834 1.64249 4.04856 1.46808 3.10531 1.77258ZM8.60615 2.93102C9.40123 3.18827 9.95831 3.89235 10.0266 4.72477C10.0458 4.96568 9.86673 5.17685 9.62581 5.1961C9.61356 5.19727 9.6019 5.19785 9.58965 5.19785C9.3639 5.19785 9.17256 5.0246 9.1539 4.79593C9.1154 4.31643 8.79456 3.9116 8.33781 3.76402C8.1074 3.68935 7.9814 3.4426 8.05548 3.21335C8.13073 2.98352 8.37515 2.85868 8.60615 2.93102Z" fill="black"/>
</svg>
