<svg width="75" height="26" viewBox="0 0 75 26" fill="none" xmlns="http://www.w3.org/2000/svg">
<path d="M4.38 12.212V4.292H8.88C11.616 4.292 13.272 5.84 13.272 8.288C13.272 10.7 11.616 12.212 8.88 12.212H4.38ZM9.528 16.028C14.424 16.028 17.664 12.752 17.664 8.252C17.664 3.788 14.424 0.475998 9.528 0.475998H0.06V26H4.38V16.028H9.528Z" fill="#655EB0"/>
<path d="M42.3803 26V0.475998H38.0243V11.024H26.0363V0.475998H21.7163V26H26.0363V15.092H38.0243V26H42.3803Z" fill="#4B9840"/>
<path d="M52.2853 26V15.596C52.2853 13.364 53.6893 11.708 55.9213 11.708C58.2973 11.708 59.3053 13.292 59.3053 15.308V26H63.4093V15.596C63.4093 13.436 64.8493 11.708 67.0453 11.708C69.3853 11.708 70.4293 13.256 70.4293 15.308V26H74.4613V14.624C74.4613 9.98 71.4373 7.964 68.2693 7.964C66.0013 7.964 63.9493 8.756 62.5813 11.06C61.6453 9.008 59.6293 7.964 57.3253 7.964C55.3453 7.964 53.1493 8.9 52.1413 10.7V8.468H48.1453V26H52.2853Z" fill="#F05983"/>
</svg>
