<svg width="136" height="136" viewBox="0 0 136 136" fill="none" xmlns="http://www.w3.org/2000/svg">
<path d="M3.81735 56.314C2.31653 56.0407 0.872478 57.0354 0.660371 58.546C-1.19085 71.7309 0.867478 85.1922 6.61163 97.2484C12.7524 110.137 22.7942 120.766 35.3134 127.629C47.8327 134.491 62.1944 137.24 76.3629 135.484C90.5314 133.728 103.788 127.557 114.253 117.846C124.719 108.135 131.862 95.3765 134.671 81.3787C137.48 67.3809 135.812 52.854 129.903 39.8573C123.994 26.8605 114.145 16.0531 101.751 8.96704C90.1571 2.33867 76.8871 -0.719087 63.6008 0.142429C62.0785 0.241139 60.9788 1.60688 61.1392 3.12392C61.2996 4.64095 62.6596 5.73428 64.1822 5.64104C76.3142 4.89814 88.4222 7.71024 99.0088 13.7629C110.396 20.2733 119.445 30.2027 124.874 42.1436C130.303 54.0845 131.835 67.4312 129.255 80.2918C126.674 93.1524 120.111 104.875 110.496 113.797C100.88 122.719 88.7009 128.388 75.6835 130.001C62.6661 131.615 49.4711 129.09 37.9689 122.785C26.4667 116.479 17.2407 106.714 11.5988 94.8723C6.3536 83.8633 4.45347 71.5791 6.10021 59.5365C6.30689 58.025 5.31817 56.5872 3.81735 56.314Z" fill="#F05983"/>
</svg>
