<svg width="16" height="18" viewBox="0 0 16 18" fill="none" xmlns="http://www.w3.org/2000/svg">
<path d="M11.3754 14.075C10.9967 14.0667 10.6921 13.75 10.6921 13.3667C10.6839 12.9833 10.9885 12.6675 11.3672 12.6592H11.3754C11.7623 12.6592 12.0752 12.9758 12.0752 13.3667C12.0752 13.7583 11.7623 14.075 11.3754 14.075ZM8.01647 11.0083C7.63776 11.0258 7.32492 10.725 7.30845 10.3425C7.30845 9.95916 7.60483 9.64249 7.98353 9.62499C8.35401 9.62499 8.65862 9.91749 8.66685 10.2917C8.68332 10.6758 8.38694 10.9925 8.01647 11.0083ZM8.01647 14.0333C7.63776 14.0508 7.32492 13.75 7.30845 13.3667C7.30845 12.9833 7.60483 12.6675 7.98353 12.65C8.35401 12.65 8.65862 12.9425 8.66685 13.3175C8.68332 13.7008 8.38694 14.0175 8.01647 14.0333ZM4.63282 11.0083C4.25412 11.0258 3.94127 10.725 3.92481 10.3425C3.92481 9.95916 4.22119 9.64249 4.59989 9.62499C4.97036 9.62499 5.27497 9.91749 5.28321 10.2917C5.29967 10.6758 5.00329 10.9925 4.63282 11.0083ZM4.62459 14.0333C4.24588 14.0508 3.93304 13.75 3.91658 13.3667C3.91658 12.9833 4.21295 12.6675 4.59166 12.65C4.96213 12.65 5.26674 12.9425 5.27497 13.3175C5.29144 13.7008 4.99506 14.0175 4.62459 14.0333ZM10.7003 10.3342C10.7003 9.95082 10.9967 9.64249 11.3754 9.63416C11.7459 9.63416 12.0423 9.93332 12.0587 10.3008C12.067 10.6842 11.7706 11.0008 11.4001 11.0083C11.0214 11.0167 10.7086 10.725 10.7003 10.3425V10.3342ZM0.5 6.71416V13.0583C0.5 15.6917 2.16301 17.3333 4.77278 17.3333H11.219C13.8535 17.3333 15.5 15.725 15.5 13.1092V6.71416H0.5Z" fill="#8991A2"/>
<path opacity="0.4" d="M0.502808 6.71407C0.51351 6.2249 0.554674 5.25407 0.632061 4.94157C1.02723 3.18407 2.36916 2.0674 4.28738 1.90823H11.7133C13.615 2.07573 14.9734 3.1999 15.3686 4.94157C15.4452 5.24573 15.4863 6.22407 15.497 6.71407H0.502808Z" fill="#8991A2"/>
<path d="M4.92066 4.49166C5.2829 4.49166 5.55458 4.21749 5.55458 3.84999V1.30916C5.55458 0.941657 5.2829 0.666656 4.92066 0.666656C4.55842 0.666656 4.28674 0.941657 4.28674 1.30916V3.84999C4.28674 4.21749 4.55842 4.49166 4.92066 4.49166Z" fill="#8991A2"/>
<path d="M11.0791 4.49166C11.4331 4.49166 11.713 4.21749 11.713 3.84999V1.30916C11.713 0.941657 11.4331 0.666656 11.0791 0.666656C10.7169 0.666656 10.4452 0.941657 10.4452 1.30916V3.84999C10.4452 4.21749 10.7169 4.49166 11.0791 4.49166Z" fill="#8991A2"/>
</svg>
