<svg width="18" height="18" viewBox="0 0 18 18" fill="none" xmlns="http://www.w3.org/2000/svg">
<path opacity="0.4" d="M9.01663 0.666672C4.17496 0.666672 0.666626 4.61667 0.666626 9.00001C0.666626 10.4 1.07496 11.8417 1.79163 13.1583C1.92496 13.375 1.94163 13.65 1.84996 13.9083L1.29163 15.775C1.16663 16.225 1.54996 16.5583 1.97496 16.425L3.65829 15.925C4.11663 15.775 4.47496 15.9667 4.90079 16.225C6.11746 16.9417 7.63329 17.3083 8.99996 17.3083C13.1333 17.3083 17.3333 14.1167 17.3333 8.97501C17.3333 4.54167 13.75 0.666672 9.01663 0.666672Z" fill="#8991A2"/>
<path d="M5.14174 7.94176C5.73341 7.94176 6.20841 8.41676 6.20841 9.00842C6.20841 9.59176 5.73341 10.0668 5.14174 10.0751C4.55841 10.0751 4.07507 9.59176 4.07507 9.00842C4.07507 8.41676 4.55007 7.94176 5.14174 7.94176ZM8.98374 7.94176C9.57541 7.94176 10.0504 8.41676 10.0504 9.00842C10.0504 9.59176 9.57541 10.0751 8.98374 10.0751C8.39207 10.0668 7.91707 9.59176 7.91707 9.00009C7.91707 8.41676 8.40041 7.93342 8.98374 7.94176ZM12.8252 7.94176C13.4169 7.94176 13.8919 8.41676 13.8919 9.00842C13.8919 9.59176 13.4169 10.0751 12.8252 10.0751C12.2336 10.0751 11.7586 9.59176 11.7586 9.00842C11.7586 8.41676 12.2336 7.94176 12.8252 7.94176Z" fill="#8991A2"/>
</svg>
