<svg width="18" height="18" viewBox="0 0 18 18" fill="none" xmlns="http://www.w3.org/2000/svg">
<path d="M12.3962 0.666656H15.2178C16.3864 0.666656 17.3333 1.62153 17.3333 2.79996V5.64543C17.3333 6.82385 16.3864 7.77873 15.2178 7.77873H12.3962C11.2276 7.77873 10.2808 6.82385 10.2808 5.64543V2.79996C10.2808 1.62153 11.2276 0.666656 12.3962 0.666656" fill="#F5BF2F"/>
<path fill-rule="evenodd" clip-rule="evenodd" d="M2.78206 0.666656H5.6037C6.77226 0.666656 7.71914 1.62153 7.71914 2.79996V5.64543C7.71914 6.82385 6.77226 7.77873 5.6037 7.77873H2.78206C1.61351 7.77873 0.666626 6.82385 0.666626 5.64543V2.79996C0.666626 1.62153 1.61351 0.666656 2.78206 0.666656ZM2.78206 10.2213H5.6037C6.77226 10.2213 7.71914 11.1761 7.71914 12.3546V15.2C7.71914 16.3776 6.77226 17.3333 5.6037 17.3333H2.78206C1.61351 17.3333 0.666626 16.3776 0.666626 15.2V12.3546C0.666626 11.1761 1.61351 10.2213 2.78206 10.2213ZM15.2179 10.2213H12.3962C11.2277 10.2213 10.2808 11.1761 10.2808 12.3546V15.2C10.2808 16.3776 11.2277 17.3333 12.3962 17.3333H15.2179C16.3864 17.3333 17.3333 16.3776 17.3333 15.2V12.3546C17.3333 11.1761 16.3864 10.2213 15.2179 10.2213Z" fill="#655EB0"/>
</svg>
