<svg width="20" height="20" viewBox="0 0 20 20" fill="none" xmlns="http://www.w3.org/2000/svg">
<path d="M9.13632 0C11.5257 0 13.4744 1.99 13.4744 4.44V9.23H7.59892C7.17784 9.23 6.8449 9.57 6.8449 10C6.8449 10.42 7.17784 10.77 7.59892 10.77H13.4744V15.55C13.4744 18 11.5257 20 9.11674 20H4.34783C1.94869 20 0 18.01 0 15.56V4.45C0 1.99 1.95848 0 4.35763 0H9.13632ZM15.9192 6.5502C16.2079 6.2402 16.6795 6.2402 16.9683 6.5402L19.7786 9.4502C19.923 9.6002 20 9.7902 20 10.0002C20 10.2002 19.923 10.4002 19.7786 10.5402L16.9683 13.4502C16.8239 13.6002 16.6314 13.6802 16.4485 13.6802C16.2561 13.6802 16.0636 13.6002 15.9192 13.4502C15.6305 13.1502 15.6305 12.6602 15.9192 12.3602L17.4591 10.7702H13.4746V9.2302H17.4591L15.9192 7.6402C15.6305 7.3402 15.6305 6.8502 15.9192 6.5502Z" fill="#8991A2"/>
</svg>
