<svg width="20" height="20" viewBox="0 0 20 20" fill="none" xmlns="http://www.w3.org/2000/svg">
<path d="M10.0126 12.83C8.32372 12.83 6.95752 11.58 6.95752 10.01C6.95752 8.43999 8.32372 7.17999 10.0126 7.17999C11.7016 7.17999 13.0355 8.43999 13.0355 10.01C13.0355 11.58 11.7016 12.83 10.0126 12.83Z" fill="#8991A2"/>
<path opacity="0.4" d="M19.7159 12.37C19.5115 12.07 19.2211 11.77 18.8446 11.58C18.5434 11.44 18.3497 11.21 18.1776 10.94C17.629 10.08 17.9517 8.95 18.8661 8.44C19.9418 7.87 20.2861 6.6 19.6621 5.61L18.9414 4.43C18.3282 3.44 16.9835 3.09 15.9185 3.67C14.9719 4.15 13.7563 3.83 13.2077 2.98C13.0356 2.7 12.9387 2.4 12.9603 2.1C12.9925 1.71 12.8634 1.34 12.6698 1.04C12.2718 0.42 11.551 0 10.755 0H9.23818C8.45288 0.02 7.73213 0.42 7.33411 1.04C7.12972 1.34 7.01138 1.71 7.0329 2.1C7.05441 2.4 6.9576 2.7 6.78548 2.98C6.23685 3.83 5.02126 4.15 4.08536 3.67C3.00961 3.09 1.67569 3.44 1.05176 4.43L0.331009 5.61C-0.282165 6.6 0.0620733 7.87 1.12706 8.44C2.04144 8.95 2.36417 10.08 1.82629 10.94C1.64342 11.21 1.44978 11.44 1.14858 11.58C0.782822 11.77 0.460099 12.07 0.28798 12.37C-0.110046 12.99 -0.088531 13.77 0.309495 14.42L1.05176 15.62C1.44978 16.26 2.19205 16.66 2.96658 16.66C3.33234 16.66 3.76263 16.56 4.10687 16.36C4.37581 16.19 4.69853 16.13 5.05353 16.13C6.11852 16.13 7.01138 16.96 7.0329 17.95C7.0329 19.1 8.02258 20 9.27045 20H10.7335C11.9706 20 12.9603 19.1 12.9603 17.95C12.9925 16.96 13.8854 16.13 14.9504 16.13C15.2946 16.13 15.6173 16.19 15.897 16.36C16.2413 16.56 16.6608 16.66 17.0373 16.66C17.8011 16.66 18.5434 16.26 18.9414 15.62L19.6944 14.42C20.0817 13.75 20.114 12.99 19.7159 12.37Z" fill="#8991A2"/>
</svg>
