<svg width="18" height="18" viewBox="0 0 18 18" fill="none" xmlns="http://www.w3.org/2000/svg">
<path d="M7.46059 3.62962C7.50303 3.716 7.53106 3.80852 7.54361 3.90362L7.77564 7.35356L7.89082 9.08757C7.89201 9.26589 7.91999 9.44306 7.97385 9.61337C8.11296 9.94381 8.44759 10.1538 8.81167 10.1392L14.3594 9.7763C14.5996 9.77234 14.8316 9.86219 15.0043 10.0261C15.1482 10.1627 15.2412 10.3413 15.2704 10.5335L15.2803 10.6502C15.0507 13.8291 12.7159 16.4806 9.54359 17.165C6.37125 17.8495 3.11818 16.4036 1.55055 13.6124C1.09862 12.8015 0.816335 11.9102 0.720278 10.9908C0.68015 10.7187 0.662481 10.4438 0.667442 10.1688C0.662488 6.76062 3.08952 3.81414 6.4869 3.10381C6.8958 3.04015 7.29665 3.25661 7.46059 3.62962Z" fill="#8991A2"/>
<path opacity="0.4" d="M9.72502 0.667354C13.5249 0.764027 16.7186 3.4965 17.3333 7.17691L17.3275 7.20407L17.3107 7.24357L17.313 7.35197C17.3043 7.4956 17.2489 7.63379 17.1533 7.74541C17.0538 7.86168 16.9178 7.94086 16.768 7.9716L16.6767 7.98413L10.276 8.39885C10.0631 8.41984 9.85113 8.35119 9.6928 8.20997C9.56086 8.09228 9.47651 7.93342 9.45268 7.76224L9.02306 1.37089C9.01559 1.34928 9.01559 1.32585 9.02306 1.30424C9.02893 1.12807 9.10648 0.961538 9.23839 0.841863C9.37029 0.722188 9.54555 0.659338 9.72502 0.667354Z" fill="#8991A2"/>
</svg>
