<svg width="16" height="14" viewBox="0 0 16 14" fill="none" xmlns="http://www.w3.org/2000/svg">
<path d="M14.4746 8.70444C13.8659 7.99357 13.5892 7.37754 13.5892 6.33095V5.9751C13.5892 4.61127 13.2753 3.73254 12.5929 2.85382C11.541 1.48915 9.77031 0.666656 8.03685 0.666656H7.96314C6.26612 0.666656 4.55088 1.45138 3.48083 2.76066C2.76111 3.65701 2.41077 4.5735 2.41077 5.9751V6.33095C2.41077 7.37754 2.15237 7.99357 1.5254 8.70444C1.06409 9.22815 0.916664 9.90125 0.916664 10.6297C0.916664 11.3591 1.15602 12.0498 1.63639 12.6113C2.26335 13.2844 3.14871 13.7141 4.05313 13.7888C5.36254 13.9382 6.67195 13.9944 8.00041 13.9944C9.32805 13.9944 10.6375 13.9004 11.9477 13.7888C12.8513 13.7141 13.7366 13.2844 14.3636 12.6113C14.8431 12.0498 15.0833 11.3591 15.0833 10.6297C15.0833 9.90125 14.9359 9.22815 14.4746 8.70444Z" fill="#8991A2"/>
</svg>
